PathFileType	4	(X/Y/Z)	C:/Users/opensim2020/Desktop/walking_exp_matlab/subject06_walking16_straight_02.trc	
DataRate	CameraRate	NumFrames	NumMarkers	Units	OrigDataRate	OrigDataStartFrame	OrigNumFrames	
100.00	100.00	6	51	mm	100.00	1989	283	
Frame#	Time	LFHD			RFHD			LBHD			RBHD			C7			T10			CLAV			STRN			RBAK			LSHO			LUPA			LELB			LFRM			LWRA			LWRB			LFIN			RSHO			RUPA			RELB			RFRM			RWRA			RWRB			RFIN			LASI			RASI			LPSI			RPSI			LTHI			LKNE			LTIB			LANK			LHEE			LTOE			RTHI			RKNE			RTIB			RANK			RHEE			RTOE			*39			*40			*41			*42			*43			*44			*45			*46			*47			*48			*49			*50			
		X1	Y1	Z1	X2	Y2	Z2	X3	Y3	Z3	X4	Y4	Z4	X5	Y5	Z5	X6	Y6	Z6	X7	Y7	Z7	X8	Y8	Z8	X9	Y9	Z9	X10	Y10	Z10	X11	Y11	Z11	X12	Y12	Z12	X13	Y13	Z13	X14	Y14	Z14	X15	Y15	Z15	X16	Y16	Z16	X17	Y17	Z17	X18	Y18	Z18	X19	Y19	Z19	X20	Y20	Z20	X21	Y21	Z21	X22	Y22	Z22	X23	Y23	Z23	X24	Y24	Z24	X25	Y25	Z25	X26	Y26	Z26	X27	Y27	Z27	X28	Y28	Z28	X29	Y29	Z29	X30	Y30	Z30	X31	Y31	Z31	X32	Y32	Z32	X33	Y33	Z33	X34	Y34	Z34	X35	Y35	Z35	X36	Y36	Z36	X37	Y37	Z37	X38	Y38	Z38	X39	Y39	Z39	X40	Y40	Z40	X41	Y41	Z41	X42	Y42	Z42	X43	Y43	Z43	X44	Y44	Z44	X45	Y45	Z45	X46	Y46	Z46	X47	Y47	Z47	X48	Y48	Z48	X49	Y49	Z49	X50	Y50	Z50	X51	Y51	Z51	

36	0.350	1525.87903	1081.27759	1651.65662	1394.33826	1083.62903	1640.86462	1528.68713	1213.67395	1595.29761	1400.01367	1214.62976	1590.01782	1462.41089	1215.66431	1438.65198	1443.33105	1237.76318	1108.35815	1467.16650	1104.77808	1362.69653	1470.88940	1062.39893	1187.69421	1371.23596	1279.49158	1268.09448	1626.72900	1172.74609	1388.18115	1692.75061	1207.25500	1188.39783	1700.06677	1231.79578	1078.49341	1716.79553	1232.42590	926.89081	1668.66626	1195.65955	805.30139	1710.05676	1253.81470	809.75995	1705.75256	1225.83472	722.70050	1304.07153	1136.66687	1396.97949	1209.86194	1158.11829	1197.59705	1198.38098	1140.81714	1076.21411	1187.32593	1109.24097	959.76874	1232.67493	1037.27930	831.85223	1183.79480	1083.65649	824.72986	1191.03406	1035.84631	755.70947	1562.82996	1055.10779	955.57330	1340.50391	1055.16626	950.33392	1533.36035	1213.76294	982.68561	1363.95496	1206.50916	981.43372	1626.70752	1079.45520	647.28699	1596.98840	1044.82996	490.46378	1586.51550	1026.90442	235.42694	1543.08313	991.76959	68.03289	1495.33044	1027.45728	51.64132	1539.15076	843.71844	50.94365	1303.19556	1165.16248	618.17719	1325.24707	1192.91467	494.77719	1334.07788	1358.13306	278.18741	1381.81934	1456.88867	119.48871	1426.82690	1502.49158	112.70970	1391.46912	1327.47156	35.85556	1468.56274	1183.14929	1688.57947																																	 
37	0.360	1527.39465	1073.49902	1652.44409	1395.84644	1075.94629	1641.94495	1530.14307	1205.99487	1596.32813	1401.54102	1207.09778	1591.38525	1463.63049	1208.50391	1439.43445	1444.12732	1229.22217	1109.26929	1468.05396	1097.23718	1363.90564	1471.59509	1054.21155	1189.16443	1372.44666	1271.72729	1268.68311	1627.75037	1164.97168	1389.11511	1693.90771	1198.04114	1189.15710	1701.31848	1221.82971	1079.08362	1718.23865	1221.84070	927.61804	1669.74304	1185.18042	806.01898	1711.84583	1242.76953	810.26929	1707.10437	1214.73450	723.26587	1305.13660	1129.86353	1398.47571	1211.32935	1151.29443	1198.89783	1200.00024	1133.78320	1077.60901	1188.61548	1102.78723	960.97876	1233.25354	1031.52332	832.48401	1184.62268	1078.21399	825.76123	1191.62903	1030.62146	756.29462	1564.14172	1046.68054	957.29456	1341.80847	1046.19958	951.16779	1534.01672	1205.26050	984.19794	1364.71167	1197.72253	982.52576	1628.04175	1072.22876	648.59540	1599.24768	1039.32996	491.01556	1587.66296	1025.11487	235.68800	1543.69373	990.87909	67.90889	1496.06458	1026.76917	51.96146	1539.72046	842.85583	49.86095	1303.67664	1155.86169	618.86902	1325.19751	1182.65833	495.20984	1333.97485	1351.96472	281.80643	1381.24512	1453.38794	124.49425	1426.39539	1498.57263	119.04447	1391.01965	1327.85876	35.75122	1470.21558	1175.31628	1689.69617																																	 
38	0.370	1528.93689	1065.78284	1653.41113	1397.32666	1068.35327	1643.21912	1531.62952	1198.35144	1597.50037	1402.95630	1199.52930	1592.80750	1464.83997	1201.09497	1440.36926	1444.99817	1220.79163	1110.34497	1468.96167	1089.63232	1365.22949	1472.24939	1046.02502	1190.63831	1373.49426	1263.83154	1269.48230	1628.72412	1157.23987	1390.25024	1694.98633	1188.87256	1190.10266	1702.61902	1211.76904	1079.95215	1719.93726	1211.09937	928.69849	1670.88599	1174.24109	806.94446	1713.72888	1231.35449	811.07751	1708.50537	1203.12976	723.94196	1306.19873	1122.95142	1400.10999	1212.23792	1144.49512	1200.80139	1201.52527	1126.93506	1079.22583	1189.81470	1096.53430	962.43982	1233.96021	1026.22266	833.23541	1185.70898	1072.95618	826.90942	1192.07971	1025.81030	757.19366	1565.55298	1038.30371	958.91937	1343.68555	1038.23767	952.51129	1535.00623	1197.48669	985.84467	1365.60742	1189.05920	983.82642	1629.45593	1065.43591	649.76672	1601.21460	1034.10229	491.66910	1588.74756	1022.40790	235.93794	1544.36646	990.12891	68.03389	1496.86133	1026.61670	52.16765	1538.56018	842.29053	48.75962	1304.27161	1146.03296	619.55359	1325.00623	1171.72864	495.61380	1333.39136	1345.26563	285.57700	1380.70642	1449.07471	129.76720	1426.00049	1493.86292	125.78689	1391.15881	1327.43787	35.77789	1471.87500	1167.56714	1690.92712																																	 
39	0.380	1530.30981	1058.11975	1654.49207	1398.77612	1060.69507	1644.52979	1532.99512	1190.75916	1598.72205	1404.37402	1191.97900	1594.34277	1466.08386	1193.59485	1441.47705	1445.96973	1212.48547	1111.53394	1469.90381	1082.00171	1366.61023	1473.04272	1037.88892	1192.13025	1374.55298	1255.97681	1270.45117	1629.72681	1149.47388	1391.55518	1696.10803	1179.68958	1191.24963	1703.95068	1201.72144	1080.91760	1721.42639	1200.04468	929.81445	1672.17102	1163.05920	808.11847	1715.73315	1219.62585	812.06195	1710.05957	1191.21094	724.92523	1307.34375	1115.89148	1401.76685	1213.27734	1137.76721	1202.78650	1202.94641	1120.21973	1080.96655	1190.97021	1090.36816	964.03076	1234.66370	1020.24738	834.56262	1186.53284	1067.65356	828.31519	1192.76892	1020.80389	758.11328	1567.13953	1030.04565	960.54260	1345.01807	1029.13940	953.61243	1536.06421	1189.26941	987.27368	1366.77258	1180.67761	985.11749	1630.75146	1059.18457	650.78711	1602.68823	1029.02856	492.24615	1589.81787	1019.12451	236.19347	1544.47107	989.51581	68.00285	1497.44849	1026.68286	52.31426	1536.55713	841.76550	48.03649	1304.76965	1136.03943	620.42218	1324.39233	1160.44568	496.03525	1332.86121	1337.11267	289.20535	1380.25513	1443.95703	135.11226	1425.72400	1488.41785	132.85234	1391.35217	1326.78735	35.84480	1473.44507	1159.89856	1692.26660																																	 
40	0.390	1531.66565	1050.55347	1655.61401	1400.12207	1053.29529	1645.89819	1534.43933	1183.21167	1599.99707	1405.75635	1184.52307	1595.85193	1467.34399	1185.98535	1442.67224	1447.15515	1204.45349	1112.82312	1470.91443	1074.27429	1367.99939	1473.87756	1029.86133	1193.58118	1375.55078	1248.17090	1271.58569	1630.73950	1141.66089	1392.98169	1697.31165	1170.64917	1192.55212	1705.23865	1191.71484	1082.15332	1722.94336	1188.92810	931.08063	1673.59631	1151.53516	809.50946	1717.62012	1207.69873	813.20911	1711.63403	1179.00598	726.20209	1308.52844	1108.64734	1403.41528	1214.38928	1130.82642	1204.63257	1204.24084	1113.60889	1082.73486	1191.98010	1084.30920	965.67621	1235.23340	1014.98743	835.34991	1187.17480	1062.37354	829.89429	1193.35339	1016.01862	759.20966	1567.94043	1022.49805	961.72980	1346.48828	1021.00732	954.95819	1537.27588	1181.05505	988.57959	1368.16235	1172.71240	986.48004	1631.78479	1053.32214	651.75641	1603.70215	1024.27185	492.75043	1590.88086	1015.57513	236.53748	1544.43494	988.80298	68.06573	1497.72498	1026.60828	52.46991	1535.08887	841.35931	47.18070	1305.04102	1125.62085	621.09698	1323.58936	1148.60376	496.31842	1332.84631	1328.42017	292.25369	1379.66760	1438.19775	140.65495	1425.47351	1482.07886	140.14774	1391.54895	1326.02405	35.94309	1475.00793	1152.33118	1693.60925																																	 
41	0.400	1532.97595	1043.03198	1656.74658	1401.42908	1045.81470	1647.27869	1535.72559	1175.70496	1601.14563	1407.03931	1177.11182	1597.15662	1468.59558	1178.37012	1443.84668	1448.45361	1196.57336	1114.12988	1471.95483	1066.57581	1369.33362	1474.81299	1021.83832	1194.93225	1376.59290	1240.40381	1272.89783	1631.75781	1133.73193	1394.43030	1698.59973	1161.55908	1193.95642	1706.69006	1181.78113	1083.44434	1724.56189	1177.76599	932.46191	1675.15417	1139.76074	811.03564	1719.52466	1195.65894	814.46405	1713.53857	1166.41833	727.62231	1309.74219	1101.28979	1404.98132	1215.28491	1123.71338	1206.35669	1205.36755	1107.13342	1084.39429	1192.99524	1078.32202	967.20056	1235.91150	1008.96832	836.64575	1188.20959	1056.77441	831.17609	1194.23779	1010.78271	760.26166	1569.23010	1014.60028	962.95093	1348.29321	1013.78070	956.22754	1538.69714	1172.98181	989.85156	1369.68298	1164.90149	987.62616	1632.50793	1047.63245	652.43182	1604.51929	1019.77655	493.05115	1591.49292	1012.10046	236.79358	1544.16040	988.23096	67.93594	1497.80823	1026.39636	52.62906	1534.19067	840.89948	46.69776	1304.93225	1115.12000	621.84857	1322.57764	1136.31775	496.73953	1332.31116	1318.55176	295.48212	1378.99695	1431.74341	146.31149	1425.22070	1474.98901	147.75540	1391.70032	1325.06396	36.06184	1476.42139	1144.84534	1694.87524																																	 
